<svg xmlns="http://www.w3.org/2000/svg" version="1.0" preserveAspectRatio="xMidYMid meet" viewBox="83 122 336 256.5">

<g transform="translate(0.000000,500.000000) scale(0.100000,-0.100000)" fill="#000000" stroke="none">
<path d="M4075 3770 c-3 -5 -24 -10 -45 -10 -22 0 -51 -5 -65 -12 l-25 -11 35 -24 c19 -13 35 -31 35 -40 0 -49 -316 -407 -489 -553 -30 -25 -59 -50 -65 -55 -6 -6 -38 -31 -71 -55 -33 -25 -62 -47 -65 -51 -12 -13 -100 -69 -109 -69 -6 0 -11 -4 -11 -8 0 -5 -12 -15 -27 -22 -16 -8 -40 -22 -55 -32 -76 -52 -319 -174 -438 -221 -14 -5 -33 -13 -42 -18 -10 -5 -26 -9 -36 -9 -10 0 -22 -4 -27 -8 -6 -5 -30 -14 -55 -21 -25 -7 -54 -17 -65 -21 -46 -18 -229 -63 -363 -90 -47 -10 -60 -16 -48 -22 12 -7 16 -26 16 -83 l0 -75 165 0 165 0 0 109 c0 119 3 126 62 141 18 5 51 14 73 20 64 18 65 17 92 -30 14 -25 35 -61 46 -80 11 -19 34 -62 52 -95 l32 -60 177 -3 176 -2 0 249 c0 187 3 251 13 259 6 5 29 19 50 31 20 12 54 31 75 42 20 12 73 46 116 76 43 30 85 52 93 49 10 -4 13 -71 13 -356 l0 -350 165 0 165 0 1 498 c0 273 3 505 7 514 4 9 45 56 92 105 47 48 97 104 112 125 15 20 34 42 41 50 7 7 21 25 31 41 22 32 46 35 71 7 28 -31 45 -25 45 15 0 19 -4 35 -10 35 -5 0 -10 7 -10 15 0 7 -5 37 -11 65 -10 48 -12 50 -44 50 -19 0 -37 -4 -40 -10z"/>
<path d="M832 2873 l3 -618 165 0 165 0 3 237 2 238 173 2 172 3 0 130 0 130 -170 5 -170 5 0 105 0 105 260 5 260 5 3 133 3 132 -436 0 -435 0 2 -617z"/>
<path d="M2052 2983 l3 -508 40 3 c39 3 208 42 272 63 l32 10 3 142 c2 80 7 141 12 141 9 -2 27 -30 92 -149 39 -71 54 -83 86 -68 13 6 43 20 68 30 114 47 399 203 434 238 14 14 16 55 16 311 l0 294 -180 0 -180 0 0 -295 c0 -241 -2 -293 -13 -289 -8 3 -21 19 -30 37 -9 18 -34 64 -55 102 -22 39 -54 97 -72 130 -18 33 -41 71 -50 85 -9 14 -24 41 -33 60 -10 19 -34 64 -55 100 l-38 65 -177 3 -177 2 2 -507z"/>
<path d="M3450 3340 c0 -82 4 -150 9 -150 16 0 223 234 255 288 6 9 -23 12 -128 12 l-136 0 0 -150z"/>
<path d="M830 1742 c0 -76 3 -141 6 -145 3 -3 12 -3 20 0 10 3 14 22 14 59 l0 53 52 3 c40 2 54 7 56 20 3 14 -6 17 -50 20 l-53 3 0 40 0 40 60 5 c44 4 60 9 60 20 0 12 -17 16 -82 18 l-83 3 0 -139z"/>
<path d="M1093 1860 c-38 -23 -47 -59 -41 -157 3 -54 8 -69 27 -84 45 -37 97 -37 142 0 19 16 24 30 27 89 5 88 -10 137 -48 157 -39 20 -69 19 -107 -5z m96 -41 c21 -19 23 -29 19 -90 -4 -72 -20 -98 -61 -99 -38 0 -52 29 -52 108 0 61 3 76 19 88 27 20 48 18 75 -7z"/>
<path d="M1332 1738 c3 -119 5 -143 18 -143 12 0 16 18 18 88 1 48 6 87 10 87 4 0 34 -41 66 -91 83 -127 91 -122 91 56 0 125 -2 140 -17 143 -16 3 -18 -6 -18 -82 0 -47 -4 -87 -9 -90 -5 -3 -35 35 -67 84 -87 132 -95 127 -92 -52z"/>
<path d="M1632 1738 l3 -143 49 -3 c56 -4 100 12 121 42 18 24 21 167 5 197 -17 30 -64 49 -125 49 l-56 0 3 -142z m128 82 c16 -16 20 -33 20 -85 0 -76 -23 -108 -75 -103 l-30 3 -3 89 c-2 49 -1 95 2 103 8 20 63 16 86 -7z"/>
<path d="M1918 1859 c-22 -16 -28 -29 -28 -59 0 -49 30 -80 77 -80 20 0 41 -8 53 -20 25 -25 25 -32 0 -55 -19 -17 -53 -17 -106 0 -36 11 -39 -22 -4 -40 82 -42 183 13 164 90 -8 33 -24 44 -80 58 -54 14 -75 37 -58 65 13 21 70 28 90 11 13 -10 17 -10 25 2 13 21 -26 49 -70 49 -20 0 -48 -9 -63 -21z"/>
<path d="M2257 1873 c-11 -10 -8 -271 2 -277 5 -4 16 -3 25 0 13 5 16 22 16 78 0 40 3 76 7 79 3 4 33 -32 66 -79 32 -47 64 -83 71 -81 7 2 11 47 11 143 0 117 -2 139 -15 139 -12 0 -16 -19 -20 -90 l-5 -90 -26 35 c-15 19 -43 61 -64 93 -36 53 -53 66 -68 50z"/>
<path d="M2605 1838 c-39 -98 -87 -240 -82 -245 12 -11 46 9 49 30 3 19 10 22 61 25 53 3 58 1 67 -23 10 -27 32 -41 49 -30 7 4 7 12 1 23 -5 9 -25 62 -45 117 -49 137 -53 145 -69 145 -7 0 -22 -19 -31 -42z m58 -95 c8 -23 12 -45 9 -48 -3 -3 -21 -5 -40 -5 -31 0 -34 2 -28 23 3 12 6 27 6 34 0 12 30 46 35 41 2 -2 10 -22 18 -45z"/>
<path d="M2767 1874 c-18 -18 -5 -33 31 -36 l37 -3 5 -120 c4 -103 7 -120 22 -123 16 -3 18 10 20 120 l3 123 38 3 c30 3 37 7 35 20 -3 14 -18 17 -94 20 -49 1 -93 0 -97 -4z"/>
<path d="M3024 1867 c-2 -7 -3 -71 -2 -143 3 -107 6 -129 18 -129 13 0 15 24 18 143 2 123 0 142 -13 142 -9 0 -18 -6 -21 -13z"/>
<path d="M3171 1849 c-29 -29 -31 -35 -31 -104 0 -86 11 -115 50 -138 47 -28 96 -18 132 27 13 16 18 40 18 101 0 61 -5 85 -18 101 -43 53 -106 59 -151 13z m113 -31 c22 -30 21 -131 0 -163 -18 -28 -50 -32 -80 -11 -16 12 -19 27 -19 89 0 48 5 80 14 90 20 25 67 21 85 -5z"/>
<path d="M3424 1867 c-2 -7 -3 -71 -2 -142 3 -114 5 -130 21 -133 15 -3 17 6 17 75 0 93 10 115 33 79 10 -14 17 -29 17 -34 0 -5 9 -17 20 -27 11 -10 20 -23 20 -30 0 -20 59 -70 70 -59 7 7 10 63 8 145 -3 118 -5 134 -20 137 -16 3 -18 -6 -18 -82 0 -47 -4 -87 -8 -90 -5 -3 -35 35 -68 84 -57 86 -79 105 -90 77z"/>
<path d="M3779 1853 c-54 -137 -89 -239 -85 -250 9 -23 31 -14 43 17 11 28 14 30 66 30 46 0 57 -3 62 -19 9 -28 34 -46 46 -34 7 7 7 18 0 34 -6 13 -26 69 -47 124 -48 133 -64 151 -85 98z m46 -99 c23 -55 20 -64 -20 -64 -25 0 -35 4 -35 15 0 19 27 85 34 85 3 0 13 -16 21 -36z"/>
<path d="M3985 1868 c-3 -8 -4 -72 -3 -144 l3 -129 80 0 c67 0 80 3 83 17 3 14 -7 17 -60 20 l-63 3 -5 119 c-3 83 -9 121 -17 124 -7 2 -15 -3 -18 -10z"/>
<path d="M838 1464 c-5 -4 -8 -61 -8 -126 l0 -118 64 0 c58 0 67 3 85 26 17 21 21 41 21 95 0 92 -23 120 -101 127 -30 2 -57 0 -61 -4z m106 -50 c11 -10 16 -34 16 -74 0 -61 -11 -83 -51 -95 -37 -12 -49 11 -49 95 0 42 3 80 7 83 12 13 62 7 77 -9z"/>
<path d="M1064 1456 c-9 -23 0 -51 16 -51 10 0 15 10 15 29 0 32 -21 47 -31 22z"/>
<path d="M1170 1345 c0 -104 2 -125 15 -125 13 0 15 21 15 125 0 104 -2 125 -15 125 -13 0 -15 -21 -15 -125z"/>
<path d="M1297 1463 c-4 -3 -7 -60 -7 -125 0 -98 3 -118 15 -118 12 0 15 14 15 70 0 49 4 70 13 70 6 0 32 -32 57 -70 27 -42 52 -70 63 -70 15 0 17 13 17 125 0 104 -2 125 -15 125 -11 0 -15 -13 -15 -52 0 -56 -8 -98 -19 -98 -3 0 -28 34 -55 75 -47 74 -56 82 -69 68z"/>
<path d="M1534 1463 c-18 -6 66 -243 86 -243 21 0 104 236 85 244 -21 8 -32 -8 -52 -74 -27 -88 -44 -88 -68 -1 -18 68 -28 82 -51 74z"/>
<path d="M1764 1457 c-2 -7 -3 -62 -2 -123 l3 -109 83 -3 c52 -2 82 1 82 8 0 5 -23 10 -53 10 -60 0 -77 12 -77 51 0 27 3 28 52 31 40 2 54 7 56 20 3 14 -6 17 -50 20 -52 3 -53 4 -53 33 0 29 1 30 60 35 44 4 60 9 60 20 0 21 -153 28 -161 7z"/>
<path d="M2004 1447 c-49 -43 -26 -108 45 -123 62 -13 78 -43 37 -70 -22 -14 -31 -14 -56 -4 -36 15 -68 7 -51 -14 15 -17 72 -27 107 -17 38 10 68 52 60 85 -7 27 -51 56 -84 56 -24 0 -56 35 -47 50 11 18 48 28 71 20 11 -5 27 -4 35 1 12 8 11 12 -5 24 -29 22 -81 19 -112 -8z"/>
<path d="M2195 1460 c-11 -17 5 -30 36 -30 l29 0 0 -106 c0 -95 2 -105 18 -102 15 3 17 17 20 106 l3 102 28 0 c27 0 47 21 34 34 -11 10 -161 7 -168 -4z"/>
<path d="M2425 1458 c-3 -8 -4 -63 -3 -124 3 -95 5 -109 21 -112 16 -3 17 6 15 119 -2 87 -7 124 -15 127 -7 2 -15 -3 -18 -10z"/>
<path d="M2560 1458 c-22 -12 -25 -20 -25 -63 l0 -50 45 -14 c65 -20 75 -26 75 -47 0 -27 -41 -44 -76 -32 -16 6 -37 7 -46 4 -15 -6 -15 -8 -1 -23 23 -23 111 -22 138 2 20 18 27 69 12 91 -11 17 -48 34 -76 34 -37 0 -52 34 -27 59 16 16 26 18 55 11 37 -8 57 3 38 22 -16 16 -85 20 -112 6z"/>
<path d="M2783 1460 c-72 -31 -45 -123 40 -137 20 -3 41 -11 47 -18 25 -31 -32 -75 -70 -55 -23 12 -60 13 -60 1 0 -33 111 -49 145 -21 59 49 22 130 -58 130 -27 0 -47 17 -47 41 0 21 26 31 74 27 19 -1 39 1 42 5 23 23 -71 45 -113 27z"/>
<path d="M2984 1457 c-2 -7 -3 -62 -2 -123 l3 -109 73 -3 c45 -2 72 1 72 8 0 5 -20 10 -44 10 -50 0 -79 21 -74 54 2 15 11 22 33 24 89 8 101 34 19 42 -47 5 -49 6 -49 35 0 29 1 30 55 33 51 3 75 16 64 34 -9 14 -144 9 -150 -5z"/>
<path d="M3213 1463 c-10 -3 -13 -37 -13 -124 0 -112 1 -119 20 -119 18 0 20 7 20 60 0 49 3 58 15 54 8 -4 22 -21 31 -40 21 -45 42 -43 62 6 9 22 22 38 27 37 6 -2 11 -29 13 -60 2 -42 7 -57 17 -57 12 0 15 22 15 125 0 150 -11 160 -62 58 -18 -37 -37 -68 -43 -70 -5 -1 -23 26 -39 62 -28 64 -40 76 -63 68z"/>
<path d="M3510 1345 l0 -125 80 0 c91 0 109 17 23 22 l-58 3 -3 37 -3 37 48 3 c36 2 49 7 51 21 3 14 -4 17 -47 17 l-51 0 0 35 0 34 58 3 c43 2 57 7 57 18 0 12 -17 16 -77 18 l-78 3 0 -126z"/>
<path d="M3734 1457 c-2 -7 -3 -62 -2 -123 3 -94 5 -109 21 -112 15 -3 17 5 17 67 0 50 4 71 13 71 6 0 30 -30 52 -68 28 -47 47 -68 63 -70 l23 -3 -3 123 c-3 101 -6 123 -18 123 -12 0 -16 -16 -18 -72 -2 -40 -7 -73 -11 -73 -5 0 -30 34 -57 75 -47 72 -69 89 -80 62z"/>
<path d="M3985 1460 c-10 -15 4 -28 35 -32 25 -3 25 -5 28 -105 2 -81 6 -103 17 -103 11 0 15 22 17 102 l3 103 30 5 c18 3 30 11 30 20 0 12 -17 16 -77 18 -49 2 -79 -1 -83 -8z"/>
</g>
</svg>